<svg width="22" height="23" viewBox="0 0 22 23" fill="none" xmlns="http://www.w3.org/2000/svg">
<path d="M6.36262 0.303467H15.5775C19.0879 0.303467 21.9401 3.25403 21.9401 6.88549V16.4181C21.9401 18.1637 21.2697 19.8379 20.0765 21.0723C18.8833 22.3066 17.2649 23.0001 15.5775 23.0001H6.36262C2.85221 23.0001 0 20.0495 0 16.4181V6.88549C0 5.13983 0.670346 3.46567 1.86357 2.2313C3.05679 0.996928 4.67515 0.303467 6.36262 0.303467ZM6.14322 2.57313C5.09582 2.57313 4.09133 3.00355 3.35071 3.76971C2.61008 4.53587 2.19401 5.57501 2.19401 6.65852V16.645C2.19401 18.9034 3.96018 20.7304 6.14322 20.7304H15.7969C16.8442 20.7304 17.8487 20.3 18.5894 19.5338C19.33 18.7677 19.7461 17.7286 19.7461 16.645V6.65852C19.7461 4.40021 17.9799 2.57313 15.7969 2.57313H6.14322ZM16.7293 4.27538C17.093 4.27538 17.4418 4.42483 17.6989 4.69086C17.9561 4.95688 18.1006 5.3177 18.1006 5.69392C18.1006 6.07014 17.9561 6.43095 17.6989 6.69697C17.4418 6.963 17.093 7.11246 16.7293 7.11246C16.3656 7.11246 16.0168 6.963 15.7597 6.69697C15.5025 6.43095 15.3581 6.07014 15.3581 5.69392C15.3581 5.3177 15.5025 4.95688 15.7597 4.69086C16.0168 4.42483 16.3656 4.27538 16.7293 4.27538ZM10.97 5.97762C12.4248 5.97762 13.8199 6.57544 14.8485 7.63955C15.8772 8.70366 16.4551 10.1469 16.4551 11.6518C16.4551 13.1567 15.8772 14.5999 14.8485 15.664C13.8199 16.7281 12.4248 17.3259 10.97 17.3259C9.51532 17.3259 8.12018 16.7281 7.09154 15.664C6.0629 14.5999 5.48502 13.1567 5.48502 11.6518C5.48502 10.1469 6.0629 8.70366 7.09154 7.63955C8.12018 6.57544 9.51532 5.97762 10.97 5.97762ZM10.97 8.24729C10.0972 8.24729 9.26012 8.60597 8.64294 9.24444C8.02576 9.88291 7.67903 10.7489 7.67903 11.6518C7.67903 12.5547 8.02576 13.4207 8.64294 14.0591C9.26012 14.6976 10.0972 15.0563 10.97 15.0563C11.8429 15.0563 12.6799 14.6976 13.2971 14.0591C13.9143 13.4207 14.261 12.5547 14.261 11.6518C14.261 10.7489 13.9143 9.88291 13.2971 9.24444C12.6799 8.60597 11.8429 8.24729 10.97 8.24729Z" fill="white"/>
</svg>
