<svg width="25" height="24" viewBox="0 0 25 24" fill="none" xmlns="http://www.w3.org/2000/svg">
<path d="M22.9511 0H2.80913C1.74413 0 0.880127 0.864 0.880127 1.929V22.071C0.880127 23.136 1.74413 24 2.80913 24H22.9511C24.0161 24 24.8801 23.136 24.8801 22.071V1.929C24.8801 0.864 24.0161 0 22.9511 0ZM22.9511 22.08C9.51713 22.077 2.80013 22.074 2.80013 22.071C2.80313 8.637 2.80613 1.92 2.80913 1.92C16.2431 1.923 22.9601 1.926 22.9601 1.929C22.9571 15.363 22.9541 22.08 22.9511 22.08ZM4.43813 8.997H7.99913V20.451H4.43813V8.997ZM6.22013 7.431C7.35713 7.431 8.28413 6.507 8.28413 5.367C8.28413 5.09595 8.23074 4.82756 8.12701 4.57714C8.02329 4.32673 7.87126 4.09919 7.6796 3.90753C7.48794 3.71587 7.2604 3.56384 7.00999 3.46011C6.75957 3.35639 6.49118 3.303 6.22013 3.303C5.94908 3.303 5.68068 3.35639 5.43027 3.46011C5.17985 3.56384 4.95232 3.71587 4.76066 3.90753C4.569 4.09919 4.41697 4.32673 4.31324 4.57714C4.20951 4.82756 4.15613 5.09595 4.15613 5.367C4.15313 6.507 5.07713 7.431 6.22013 7.431ZM13.7891 14.784C13.7891 13.29 14.0741 11.844 15.9251 11.844C17.7491 11.844 17.7761 13.551 17.7761 14.88V20.451H21.3341V14.169C21.3341 11.085 20.6681 8.712 17.0651 8.712C15.3341 8.712 14.1731 9.663 13.6961 10.563H13.6481V8.997H10.2311V20.451H13.7891V14.784Z" fill="white"/>
</svg>
